<?xml version="1.0" encoding="UTF-8" standalone="no"?>
<!-- Uploaded to: SVG Repo, www.svgrepo.com, Generator: SVG Repo Mixer Tools -->

<svg
   fill="#000000"
   version="1.1"
   id="Capa_1"
   width="800px"
   height="800px"
   viewBox="0 0 485.688 485.688"
   xml:space="preserve"
   sodipodi:docname="jmvReadWrite.svg"
   inkscape:version="1.2.2 (b0a8486541, 2022-12-01)"
   xmlns:inkscape="http://www.inkscape.org/namespaces/inkscape"
   xmlns:sodipodi="http://sodipodi.sourceforge.net/DTD/sodipodi-0.dtd"
   xmlns="http://www.w3.org/2000/svg"
   xmlns:svg="http://www.w3.org/2000/svg"><defs
   id="defs5070"><marker
   style="overflow:visible"
   id="Arrow2"
   refX="0"
   refY="0"
   orient="auto-start-reverse"
   inkscape:stockid="Arrow2"
   markerWidth="5"
   markerHeight="2.5"
   viewBox="0 0 7.7 5.6"
   inkscape:isstock="true"
   inkscape:collect="always"
   preserveAspectRatio="xMidYMid"><path
     transform="scale(0.7)"
     d="M -2,-4 9,0 -2,4 c 2,-2.33 2,-5.66 0,-8 z"
     style="fill:context-stroke;fill-rule:evenodd;stroke:none"
     id="arrow2L" /></marker>
	
<linearGradient
   id="gradientFill-2"
   x1="301.02603"
   x2="703.06751"
   y1="151.40061"
   y2="553.44209"
   gradientUnits="userSpaceOnUse"
   spreadMethod="pad"
   gradientTransform="matrix(0.3551667,0,0,0.36241639,23.78814,31.35937)"><stop
     offset="0"
     stop-color="rgb(39,109,195)"
     stop-opacity="1"
     id="stop2663" /><stop
     offset="1"
     stop-color="rgb(22,92,170)"
     stop-opacity="1"
     id="stop2665" /></linearGradient><marker
   style="overflow:visible"
   id="Arrow2-3"
   refX="0"
   refY="0"
   orient="auto-start-reverse"
   inkscape:stockid="Arrow2"
   markerWidth="5"
   markerHeight="2.5"
   viewBox="0 0 7.7 5.6"
   inkscape:isstock="true"
   inkscape:collect="always"
   preserveAspectRatio="xMidYMid"><path
     transform="scale(0.7)"
     d="M -2,-4 9,0 -2,4 c 2,-2.33 2,-5.66 0,-8 z"
     style="fill:context-stroke;fill-rule:evenodd;stroke:none"
     id="arrow2L-6" /></marker></defs><sodipodi:namedview
   id="namedview5068"
   pagecolor="#ffffff"
   bordercolor="#666666"
   borderopacity="1.0"
   inkscape:showpageshadow="2"
   inkscape:pageopacity="0.0"
   inkscape:pagecheckerboard="false"
   inkscape:deskcolor="#d1d1d1"
   showgrid="false"
   showguides="true"
   inkscape:zoom="0.9775"
   inkscape:cx="369.30946"
   inkscape:cy="408.18414"
   inkscape:window-width="1920"
   inkscape:window-height="1011"
   inkscape:window-x="0"
   inkscape:window-y="0"
   inkscape:window-maximized="1"
   inkscape:current-layer="Capa_1"><sodipodi:guide
     position="-49.065668,242.844"
     orientation="0,-1"
     id="guide9211"
     inkscape:locked="false" /></sodipodi:namedview>

<g
   id="g4058"><path
     d="M 0,242.84352 121.42266,32.533204 H 364.27324 L 485.68801,242.84352 364.27324,453.15383 H 121.42266 Z"
     id="path2017"
     style="stroke-width:2.62888;fill:#ffffff;fill-opacity:1" /><g
     id="g1580"><g
       id="g5063"
       style="stroke-width:1.21422;stroke-dasharray:none;fill:#ffd42a;fill-opacity:1">
		<path
   d="M 364.269,453.155 H 121.416 L 0,242.844 121.416,32.533 H 364.269 L 485.688,242.845 Z M 131.905,434.997 H 353.783 L 464.722,242.845 353.783,50.691 H 131.905 L 20.966,242.844 Z"
   id="path5061"
   style="stroke-width:1.21422;stroke-dasharray:none;fill:#ffd42a;fill-opacity:1" />
	</g><path
       style="fill:#3e6da9;fill-opacity:1;stroke:none;stroke-width:0;stroke-miterlimit:4;stroke-dasharray:none;stroke-opacity:1"
       d="m 258.95493,328.34753 v -72.85322 h 19.20676 19.20672 v 50.42425 50.42413 l 2.98042,-0.92428 c 11.75316,-3.64509 29.68088,-15.97375 40.98846,-28.18731 17.07044,-18.43812 25.91399,-38.03136 29.53923,-65.44491 l 0.83207,-6.29188 h 18.99949 18.99951 l -0.58212,5.62955 c -3.37746,32.65803 -11.13699,54.0022 -28.47193,78.31658 -16.89307,23.69482 -41.52972,42.21815 -70.80989,53.23914 -11.17003,4.20442 -32.86124,8.52113 -42.81798,8.52113 h -8.07074 z"
       id="path4694-7"
       inkscape:connector-curvature="0"
       sodipodi:nodetypes="cccccccssccccssscc" /><path
       d="m 221.11341,166.61688 c 0,0 7.82915,2.36252 12.37768,4.66405 1.57825,0.79863 4.30887,2.3923 6.27853,4.48467 1.92948,2.04931 2.87019,4.12589 2.87019,4.12589 l 30.85449,52.02212 -49.86948,0.0222 -23.32026,-43.79258 c 0,0 -4.77526,-8.20478 -7.71362,-10.58381 -2.45114,-1.98438 -3.49624,-2.6908 -5.91976,-2.6908 -1.68695,0 -11.84884,0 -11.84884,0 l 0.009,57.03562 -44.12911,0.0187 V 86.22944 h 88.61699 c 0,0 40.36199,0.72795 40.36199,39.12853 0,38.40057 -38.56813,41.25892 -38.56813,41.25892 z m -19.19436,-48.78455 -26.71533,-0.0172 -0.0133,24.77329 26.72861,-0.009 c 0,0 12.37767,-0.0384 12.37767,-12.60191 0,-12.81609 -12.37767,-12.14554 -12.37767,-12.14554 z"
       fill="url(#gradientFill-2)"
       fill-rule="evenodd"
       id="path2672"
       style="fill:url(#gradientFill-2);stroke-width:0.358773" /><path
       style="fill:none;stroke:#000000;stroke-width:12.1422;stroke-linecap:round;stroke-linejoin:miter;stroke-dasharray:none;stroke-opacity:1;marker-end:url(#Arrow2)"
       d="m 265.14293,166.39441 c 0,0 71.25795,-3.71842 71.88879,55.53943"
       id="path13699"
       sodipodi:nodetypes="cc" /><path
       style="fill:none;stroke:#000000;stroke-width:12.1422;stroke-linecap:round;stroke-linejoin:miter;stroke-dasharray:none;stroke-opacity:1;marker-end:url(#Arrow2-3)"
       d="m 239.40888,337.99295 c 0,0 -71.25795,3.71842 -71.88879,-55.53943"
       id="path13699-7"
       sodipodi:nodetypes="cc" /></g></g></svg>
